# xmcd
#
# Track frame offsets:
#	150
#	11536
#	25729
#	38876
#	52960
#	68467
#	80778
#	96508
#	110282
#	128558
#
# Disc length: 1921 seconds
#
# Revision: 1
# Processed by: cddbd v1.5.2PL0 Copyright (c) Steve Scherf et al.
# Submitted via: audiograbber 1.83.01
#
DISCID=75077f0a
DTITLE=Kris Kristofferson - The Complete Monument and Columbia Albums Collection 
DTITLE=(CD 04) - Jesus Was A Capricorn [remastered 2016]
DYEAR=1972
DGENRE=Singer/Songwriter
TTITLE0=Jesus Was A Capricorn (Owed To John Prine)
TTITLE1=Nobody Wins
TTITLE2=It Sure Was (Love) [with Rita Coolidge]
TTITLE3=Enough For You
TTITLE4=Help Me [with Larry Gatlin and Rita Coolidge]
TTITLE5=Jesse Younger
TTITLE6=Give It Time To Be Tender
TTITLE7=Out Of Mind, Out Of Sight
TTITLE8=Sugar Man
TTITLE9=Why Me
EXTD=
EXTT0=
EXTT1=
EXTT2=
EXTT3=
EXTT4=
EXTT5=
EXTT6=
EXTT7=
EXTT8=
EXTT9=
PLAYORDER=
